<?xml version="1.0" encoding="utf-8"?>
<!-- Generator: Adobe Illustrator 25.0.1, SVG Export Plug-In . SVG Version: 6.00 Build 0)  -->
<svg version="1.1" id="Capa_1" xmlns="http://www.w3.org/2000/svg" xmlns:xlink="http://www.w3.org/1999/xlink" x="0px" y="0px"
	 viewBox="0 0 512 512" style="enable-background:new 0 0 512 512;" xml:space="preserve">
<style type="text/css">
	.st0{fill:#ABB2BF;}
</style>
<g>
	<g>
		<path class="st0" d="M452,0H60C26.9,0,0,26.9,0,60v392c0,33.1,26.9,60,60,60h392c33.1,0,60-26.9,60-60V60C512,26.9,485.1,0,452,0z
			 M472,452c0,11-9,20-20,20H338V309h61.8l10.2-62h-72v-43c0-17,13-30,30-30h41v-62h-41c-50.9,0-92,41.2-92,92.2V247h-60v62h60v163
			H60c-11,0-20-9-20-20V60c0-11,9-20,20-20h392c11,0,20,9,20,20V452z"/>
	</g>
</g>
</svg>
