<?xml version="1.0" encoding="utf-8"?>
<!-- Generator: Adobe Illustrator 25.0.1, SVG Export Plug-In . SVG Version: 6.00 Build 0)  -->
<svg version="1.1" id="Layer_1" xmlns="http://www.w3.org/2000/svg" xmlns:xlink="http://www.w3.org/1999/xlink" x="0px" y="0px"
	 viewBox="0 0 24 24" style="enable-background:new 0 0 24 24;" xml:space="preserve">
<style type="text/css">
	.st0{fill:#ABB2BF;}
</style>
<path class="st0" d="M12,0C8.7,0,8.3,0,7.1,0.1c-1.3,0-2.2,0.2-3,0.5C3.4,0.9,2.7,1.3,2,2S0.9,3.3,0.6,4.1s-0.5,1.7-0.5,3
	C0,8.3,0,8.7,0,12s0,3.7,0.1,4.9c0.1,1.3,0.3,2.1,0.6,2.9C0.9,20.6,1.3,21.3,2,22s1.3,1.1,2.1,1.4S5.7,23.9,7,24c1.3,0,1.7,0,5,0
	s3.7,0,4.9-0.1c1.3-0.1,2.1-0.3,2.9-0.6c0.8-0.3,1.5-0.7,2.1-1.4c0.7-0.7,1.1-1.3,1.4-2.1c0.3-0.8,0.5-1.6,0.6-2.9
	C24,15.7,24,15.3,24,12s0-3.7-0.1-4.9c-0.1-1.3-0.3-2.1-0.6-2.9C23.1,3.4,22.7,2.7,22,2s-1.3-1.1-2.1-1.4C19.1,0.3,18.3,0.1,17,0
	C15.7,0,15.3,0,12,0z M15.7,2.2c0.1,0,0.5,0,1.1,0C18,2.3,18.6,2.4,19,2.6c0.6,0.2,1,0.5,1.4,0.9s0.7,0.8,0.9,1.4
	c0.2,0.4,0.4,1.1,0.4,2.2c0.1,1.3,0.1,1.6,0.1,4.8s0,3.6-0.1,4.9c-0.1,1.2-0.3,1.8-0.4,2.2c-0.2,0.6-0.5,1-0.9,1.4s-0.8,0.7-1.4,0.9
	c-0.4,0.2-1.1,0.4-2.2,0.4c-1.3,0.1-1.6,0.1-4.9,0.1c-3.2,0-3.6,0-4.9-0.1c-1.2-0.1-1.8-0.3-2.2-0.4c-0.6-0.2-1-0.5-1.4-0.9
	S2.7,19.6,2.5,19c-0.2-0.4-0.4-1.1-0.4-2.2C2.1,15.5,2,15.2,2,12s0-3.6,0.1-4.9C2.2,6,2.4,5.3,2.6,4.9c0.2-0.6,0.5-1,0.9-1.4
	s0.8-0.7,1.4-0.9C5.3,2.4,6,2.2,7.1,2.2c1.3,0,1.6-0.1,4.9-0.1C13.7,2.2,14.9,2.2,15.7,2.2z M12,5.8c-3.4,0-6.2,2.8-6.2,6.2
	s2.8,6.2,6.2,6.2s6.2-2.8,6.2-6.2S15.4,5.8,12,5.8z M12,16c-2.2,0-4-1.8-4-4s1.8-4,4-4s4,1.8,4,4S14.2,16,12,16z M19.8,5.6
	c0,0.8-0.6,1.4-1.4,1.4S17,6.4,17,5.6s0.6-1.4,1.4-1.4C19.2,4.2,19.8,4.8,19.8,5.6z"/>
</svg>
